<svg width="151" height="48" viewBox="0 0 151 48" fill="none" xmlns="http://www.w3.org/2000/svg">
<g clip-path="url(#clip0_2140_1940)">
<path d="M34.0204 16.2807L8.19134 36.1039C6.13833 37.6831 3.22528 37.4199 1.47745 35.5706C1.43584 35.529 1.39422 35.4805 1.35261 35.4321C1.28325 35.3489 1.21389 35.2727 1.14453 35.1827L1.09598 35.1204C1.03356 35.0373 0.971139 34.9541 0.908716 34.8641C0.874037 34.8087 0.839358 34.7533 0.804679 34.6979C0.804679 34.6979 0.804679 34.684 0.797743 34.684C0.249812 33.8529 0.00012207 32.8624 0.00012207 31.8719V22.1474C1.10986 23.1863 2.50396 23.8027 3.97435 23.969C5.79848 24.1768 7.72664 23.6988 9.32188 22.4729L27.8406 8.25313C29.9005 6.67393 32.8135 6.93713 34.5614 8.78646C34.603 8.83494 34.6515 8.88343 34.6932 8.93191C34.7625 9.0081 34.8319 9.09122 34.8943 9.17433L34.9428 9.23667C35.0122 9.32671 35.0746 9.40983 35.1371 9.49987C35.1717 9.55528 35.1995 9.60377 35.2341 9.65918C36.5728 11.8202 36.0734 14.7015 34.0204 16.2807Z" fill="#00B67A"/>
<path d="M22.4584 9.77638L7.92784 20.9278C5.77773 22.5762 2.66354 22.1676 1.01281 20.0204C-0.637914 17.8733 -0.235636 14.7703 1.91447 13.1218L16.452 1.97041C18.6021 0.321939 21.7093 0.723666 23.3601 2.87083C24.1854 3.94441 24.4975 5.26041 24.338 6.50715C24.1716 7.76082 23.5335 8.95215 22.4584 9.77638Z" fill="#00B67A"/>
<path d="M35.9833 17.3676V27.9719C35.8168 29.2255 35.1787 30.4168 34.1037 31.2342L19.5454 42.4133C17.3952 44.0617 14.288 43.6531 12.6373 41.5059C10.9796 39.3587 11.3888 36.2557 13.5389 34.6073L35.9833 17.3676Z" fill="#00B67A"/>
<path d="M136.823 36.2629C136.567 36.069 136.213 35.9859 135.755 36.0067L133.494 36.1106L133.605 38.5971L135.707 38.5001C136.206 38.4794 136.587 38.3478 136.858 38.1053C137.128 37.8629 137.253 37.5374 137.232 37.1287C137.219 36.7478 137.08 36.4569 136.823 36.2629Z" fill="#00B67A"/>
<path d="M93.0512 37.9391L91.567 38.0084L91.8236 43.6326L93.2593 43.5702C94.0986 43.5356 94.7089 43.2724 95.0973 42.7875C95.4857 42.3027 95.6522 41.5893 95.6106 40.6404C95.569 39.6845 95.3331 38.985 94.917 38.5486C94.4939 38.1053 93.8766 37.9045 93.0582 37.9391H93.0512Z" fill="#00B67A"/>
<path d="M142.941 32.121L91.2965 34.4621C87.8147 34.6214 85.1236 37.5651 85.2831 41.0421C85.4426 44.5191 88.3904 47.2065 91.8722 47.0472L143.516 44.7061C146.998 44.5468 149.689 41.6031 149.53 38.1261C149.37 34.6491 146.422 31.9617 142.941 32.121ZM95.8325 43.3209C95.2846 43.9858 94.4453 44.346 93.3356 44.3944L90.9081 44.5053L90.5751 37.2188L93.2108 37.101C94.2511 37.0525 95.0557 37.3365 95.6383 37.946C96.214 38.5556 96.533 39.4421 96.5816 40.5988C96.6371 41.7486 96.3874 42.649 95.8325 43.3209ZM97.5942 44.2074L97.2613 36.9209L102.422 36.6854L102.456 37.5166L98.2462 37.7105L98.3502 40.0032L102.234 39.83L102.269 40.6612L98.3849 40.8343L98.4959 43.3416L102.796 43.1477L102.831 43.9789L97.5734 44.2144L97.5942 44.2074ZM108.477 43.2793C108.012 43.6949 107.325 43.9235 106.41 43.965C104.544 44.0481 103.517 43.2585 103.316 41.5824L104.225 41.5408C104.371 42.6975 105.099 43.2447 106.403 43.1823C107.013 43.1546 107.471 43.0161 107.776 42.7737C108.081 42.5313 108.227 42.1919 108.206 41.7624C108.192 41.4161 108.06 41.146 107.818 40.9521C107.575 40.7581 107.166 40.6196 106.604 40.5296L105.57 40.3633C104.884 40.2525 104.357 40.0516 104.003 39.7746C103.649 39.4906 103.455 39.0889 103.434 38.5556C103.406 37.9183 103.608 37.4058 104.045 37.0179C104.481 36.6231 105.113 36.4084 105.931 36.3738C106.743 36.3391 107.395 36.4984 107.887 36.8586C108.379 37.2188 108.671 37.7521 108.754 38.4517L107.845 38.4932C107.783 38.0292 107.589 37.6898 107.263 37.4612C106.937 37.2326 106.493 37.1357 105.938 37.1564C105.411 37.1772 105.009 37.3019 104.731 37.5305C104.454 37.7521 104.322 38.0569 104.336 38.4378C104.35 38.7287 104.461 38.9573 104.662 39.1235C104.87 39.2897 105.196 39.4075 105.654 39.4837L106.944 39.6984C108.352 39.927 109.08 40.585 109.128 41.6724C109.156 42.3373 108.941 42.8707 108.477 43.2862V43.2793ZM109.995 43.6464L109.663 36.3599L110.613 36.3183L110.946 43.6048L109.995 43.6464ZM117.902 43.2862L117.646 42.3166C117.16 43.1062 116.383 43.5217 115.322 43.5702C114.31 43.6187 113.463 43.307 112.784 42.649C112.111 41.9979 111.75 41.0837 111.695 39.8993C111.639 38.7495 111.917 37.8144 112.513 37.0941C113.103 36.3807 113.942 36.0067 115.038 35.9513C115.863 35.9166 116.571 36.0828 117.153 36.4569C117.729 36.8378 118.09 37.385 118.235 38.0776L117.32 38.1815C117.195 37.7036 116.938 37.3434 116.55 37.1079C116.161 36.8725 115.69 36.7686 115.128 36.7963C114.31 36.8309 113.685 37.1287 113.255 37.669C112.825 38.2162 112.631 38.9504 112.673 39.8785C112.714 40.7651 112.964 41.4646 113.436 41.9841C113.9 42.5036 114.518 42.746 115.308 42.7114C115.926 42.6836 116.425 42.4828 116.813 42.1226C117.202 41.7555 117.445 41.2568 117.549 40.6196L117.528 40.2179L115.315 40.3218L115.281 39.4906L118.436 39.3452L118.617 43.2447L117.923 43.2793L117.902 43.2862ZM124.436 42.9884L120.358 37.2465L120.628 43.1616L119.726 43.2031L119.394 35.9166L120.448 35.8681L124.561 41.6378L124.29 35.695L125.192 35.6534L125.525 42.9399L124.436 42.9884ZM126.648 42.8914L126.315 35.6049L131.476 35.3694L131.51 36.2006L127.3 36.3945L127.404 38.6872L131.288 38.514L131.323 39.3452L127.439 39.5183L127.557 42.0256L131.857 41.8317L131.892 42.6629L126.635 42.8984L126.648 42.8914ZM137.558 42.3997L137.253 40.4672C137.184 40.0378 137.045 39.74 136.837 39.5668C136.629 39.3936 136.31 39.3174 135.887 39.3313L133.633 39.4352L133.778 42.5728L132.828 42.6144L132.495 35.3279L135.873 35.1755C136.56 35.1478 137.115 35.2932 137.531 35.6188C137.947 35.9443 138.169 36.4084 138.197 36.9971C138.217 37.4612 138.12 37.856 137.898 38.1885C137.676 38.5209 137.371 38.7495 136.983 38.8742C137.663 38.9781 138.058 39.3659 138.155 40.0378L138.529 42.3512L137.565 42.3927L137.558 42.3997ZM144.252 41.6585C143.787 42.0741 143.1 42.3027 142.185 42.3443C140.319 42.4274 139.292 41.6378 139.091 39.9616L140 39.92C140.146 41.0767 140.874 41.6239 142.178 41.5616C142.788 41.5339 143.246 41.3953 143.551 41.1529C143.856 40.9105 144.002 40.5711 143.981 40.1417C143.967 39.7954 143.835 39.5252 143.593 39.3313C143.35 39.1443 142.941 38.9988 142.379 38.9088L141.345 38.7426C140.659 38.6317 140.132 38.4378 139.778 38.1538C139.424 37.8698 139.23 37.4681 139.209 36.9348C139.181 36.2976 139.383 35.785 139.82 35.3971C140.257 35.0023 140.888 34.7876 141.706 34.753C142.518 34.7184 143.17 34.8777 143.662 35.2378C144.154 35.598 144.446 36.1313 144.529 36.8309L143.62 36.8725C143.558 36.4084 143.364 36.0621 143.038 35.8335C142.712 35.6049 142.268 35.508 141.713 35.5287C141.186 35.5495 140.784 35.6742 140.499 35.9028C140.215 36.1313 140.09 36.4292 140.104 36.8101C140.118 37.101 140.229 37.3296 140.43 37.4958C140.638 37.6621 140.964 37.7798 141.422 37.856L142.712 38.0707C144.12 38.2993 144.848 38.9573 144.897 40.0447C144.924 40.7096 144.709 41.243 144.245 41.6585H144.252Z" fill="#00B67A"/>
<path d="M54.0372 17.5898C53.3089 17.0634 52.5252 16.6201 51.679 16.2669C50.8328 15.9067 50.0491 15.5396 49.3208 15.1518C48.5925 14.7639 47.9891 14.3344 47.5175 13.8565C47.0389 13.3786 46.8031 12.7622 46.8031 12.0072C46.8031 11.2522 47.1013 10.5942 47.6978 10.0886C48.2943 9.58298 49.0711 9.32671 50.0282 9.32671C50.7634 9.32671 51.464 9.50679 52.1159 9.86004C52.7679 10.2133 53.3505 10.6427 53.8499 11.1414C54.0857 11.3769 54.3077 11.3908 54.5088 11.1691L55.7642 9.88774C55.9445 9.6661 55.9445 9.47216 55.7642 9.29208C55.1261 8.57867 54.3146 7.94837 53.3297 7.41504C52.3448 6.88171 51.2282 6.61159 49.9728 6.61159C49.0989 6.61159 48.2943 6.75011 47.5591 7.02717C46.8239 7.30422 46.1858 7.68517 45.6517 8.15616C45.1177 8.62715 44.6946 9.20204 44.3825 9.85311C44.0704 10.5111 43.9178 11.2107 43.9178 11.9656C43.9178 13.0946 44.1536 14.0297 44.6322 14.75C45.1107 15.4773 45.7142 16.0868 46.4355 16.5855C47.1637 17.0842 47.9475 17.5067 48.7937 17.853C49.6398 18.1993 50.4236 18.5664 51.1519 18.9543C51.8801 19.3422 52.4766 19.7993 52.9552 20.3257C53.4337 20.8521 53.6696 21.5309 53.6696 22.369C53.6696 23.2071 53.3574 23.9066 52.7263 24.4677C52.0951 25.0287 51.2559 25.3196 50.2016 25.3196C49.3277 25.3196 48.5024 25.098 47.7394 24.6478C46.9765 24.2045 46.3037 23.6227 45.728 22.9023C45.4922 22.6253 45.2495 22.6045 45.0136 22.84L43.6126 24.1491C43.4323 24.3291 43.4115 24.5162 43.5502 24.717C44.2438 25.6729 45.1593 26.4625 46.2968 27.0997C47.4342 27.7369 48.6758 28.0555 50.0282 28.0555C51.0409 28.0555 51.9495 27.9031 52.761 27.6053C53.5655 27.3075 54.2452 26.9057 54.807 26.4001C55.3619 25.8945 55.7919 25.2919 56.0902 24.5993C56.3884 23.9066 56.541 23.1724 56.541 22.3967C56.5618 21.2261 56.3329 20.2634 55.8543 19.5084C55.3758 18.7534 54.7724 18.1162 54.051 17.5898H54.0372Z" fill="white"/>
<path d="M69.4208 14.2236C68.9006 13.6764 68.3111 13.2678 67.6453 12.9838C66.9794 12.7068 66.2789 12.5682 65.5437 12.5682C64.4895 12.5682 63.5809 12.7968 62.811 13.2539C62.048 13.7111 61.4446 14.286 61.0077 14.9855V4.37438C61.0077 4.25664 60.9661 4.15274 60.8759 4.0627C60.7857 3.97266 60.6817 3.9311 60.5638 3.9311H58.6564C58.5385 3.9311 58.4345 3.97266 58.3443 4.0627C58.2541 4.15274 58.2125 4.25664 58.2125 4.37438V27.3213C58.2125 27.4391 58.2541 27.543 58.3443 27.633C58.4345 27.723 58.5385 27.7646 58.6564 27.7646H60.5638C60.6817 27.7646 60.7857 27.723 60.8759 27.633C60.9661 27.543 61.0077 27.4391 61.0077 27.3213V19.5153C61.0701 19.1413 61.1256 18.8089 61.1741 18.5318C61.2227 18.2547 61.292 17.9708 61.3683 17.6799C61.4446 17.389 61.5279 17.1604 61.6042 16.9803C61.9232 16.3639 62.3463 15.8998 62.8734 15.595C63.4005 15.2903 64.004 15.131 64.6767 15.131C65.7518 15.131 66.6257 15.505 67.3054 16.26C67.9782 17.0149 68.318 18.137 68.318 19.6262V27.3144C68.318 27.4321 68.3597 27.536 68.4498 27.6261C68.54 27.7161 68.644 27.7577 68.7619 27.7577H70.6693C70.7872 27.7577 70.8912 27.7161 70.9814 27.6261C71.0716 27.536 71.1132 27.4321 71.1132 27.3144V19.2106C71.1132 18.0954 70.9606 17.1258 70.6485 16.2877C70.3364 15.4496 69.9272 14.7639 69.407 14.2167L69.4208 14.2236Z" fill="white"/>
<path d="M85.505 14.9232C84.8253 14.2306 84.0277 13.6695 83.1052 13.2539C82.1828 12.8384 81.1493 12.6306 80.0188 12.6306C78.8882 12.6306 77.8548 12.8384 76.9323 13.2539C76.0099 13.6695 75.2053 14.2306 74.5325 14.9232C73.8528 15.6158 73.3326 16.4331 72.965 17.3682C72.5974 18.3032 72.4102 19.2868 72.4102 20.3188C72.4102 21.3508 72.5905 22.3344 72.965 23.2694C73.3326 24.2045 73.8528 25.0149 74.5325 25.7144C75.2053 26.407 76.0099 26.9681 76.9323 27.3837C77.8548 27.7992 78.8882 28.007 80.0188 28.007C81.1493 28.007 82.1828 27.7992 83.1052 27.3837C84.0277 26.9681 84.8323 26.414 85.505 25.7144C86.1778 25.0218 86.7049 24.2045 87.0725 23.2694C87.4401 22.3344 87.6274 21.3508 87.6274 20.3188C87.6274 19.2868 87.4401 18.3032 87.0725 17.3682C86.7049 16.4331 86.1847 15.6227 85.505 14.9232ZM84.4022 22.1612C84.1803 22.7569 83.8682 23.2763 83.4451 23.7266C83.022 24.1768 82.5296 24.53 81.9539 24.8001C81.3782 25.0703 80.7332 25.2019 80.0119 25.2019C79.2905 25.2019 78.6732 25.0703 78.0837 24.8001C77.4941 24.53 76.9948 24.1768 76.5786 23.7266C76.1625 23.2763 75.8365 22.7569 75.6076 22.1612C75.3787 21.5655 75.2608 20.9422 75.2608 20.2842C75.2608 19.6262 75.3787 19.0097 75.6076 18.421C75.8365 17.8322 76.1625 17.3197 76.5786 16.8695C76.9948 16.4193 77.5011 16.073 78.0837 15.8098C78.6663 15.5466 79.3113 15.4219 80.0119 15.4219C80.7124 15.4219 81.3713 15.5535 81.9539 15.8098C82.5365 16.066 83.0289 16.4193 83.4451 16.8695C83.8612 17.3128 84.1803 17.8322 84.4022 18.421C84.6172 19.0097 84.7282 19.6262 84.7282 20.2842C84.7282 20.9422 84.6172 21.5655 84.4022 22.1612Z" fill="white"/>
<path d="M124.471 6.25142C123.916 6.25142 123.458 6.43843 123.097 6.80552C122.737 7.17262 122.563 7.61591 122.563 8.12845C122.563 8.68256 122.744 9.14663 123.097 9.51372C123.458 9.88082 123.916 10.0609 124.471 10.0609C125.025 10.0609 125.483 9.88082 125.844 9.51372C126.204 9.14663 126.378 8.68256 126.378 8.12845C126.378 7.60898 126.198 7.17262 125.844 6.80552C125.483 6.43843 125.025 6.25142 124.471 6.25142Z" fill="white"/>
<path d="M125.428 12.8661H123.52C123.402 12.8661 123.298 12.9145 123.208 12.9977C123.118 13.0808 123.076 13.1916 123.076 13.3094V27.3144C123.076 27.4321 123.118 27.536 123.208 27.6261C123.298 27.7161 123.402 27.7577 123.52 27.7577H125.428C125.546 27.7577 125.65 27.7161 125.74 27.6261C125.83 27.536 125.872 27.4321 125.872 27.3144V13.3094C125.872 13.1916 125.83 13.0877 125.74 12.9977C125.65 12.9076 125.546 12.8661 125.428 12.8661Z" fill="white"/>
<path d="M150.903 13.1016C150.792 12.9423 150.639 12.8661 150.438 12.8661H148.469C148.288 12.8661 148.17 12.9561 148.108 13.1362L143.662 24.4884L139.188 13.1362C139.126 12.9561 139.008 12.8661 138.828 12.8661H132.461V8.12845C132.461 7.67132 132.579 7.33193 132.807 7.10336C133.036 6.87479 133.328 6.76397 133.688 6.76397C134.063 6.76397 134.444 6.83323 134.819 6.97176C134.999 7.03409 135.159 7.01331 135.297 6.9302C135.436 6.84016 135.505 6.68778 135.505 6.46613V4.67914C135.505 4.51984 135.429 4.38824 135.27 4.29127C134.971 4.17352 134.618 4.05577 134.208 3.95188C133.799 3.84798 133.369 3.78564 132.911 3.78564C131.899 3.78564 131.094 4.10426 130.512 4.74148C129.922 5.3787 129.631 6.27912 129.631 7.4566V12.8799H128.167C128.049 12.8799 127.945 12.9284 127.855 13.0115C127.765 13.0946 127.723 13.2055 127.723 13.3232V15.1102C127.723 15.2279 127.765 15.3318 127.855 15.4219C127.945 15.5119 128.049 15.5535 128.167 15.5535H129.631V27.3213C129.631 27.4391 129.672 27.543 129.763 27.633C129.853 27.723 129.957 27.7646 130.075 27.7646H132.017C132.135 27.7646 132.239 27.723 132.329 27.633C132.419 27.543 132.461 27.4391 132.461 27.3213V15.5535H137.17L142.261 27.6538L141.304 29.8702L142.864 29.8009C142.982 29.8009 143.1 29.794 143.218 29.794C143.53 29.794 143.835 29.8148 144.141 29.8564L150.938 13.621C151.014 13.441 151 13.2747 150.896 13.1154L150.903 13.1016Z" fill="white"/>
<path d="M118.894 14.8747C118.277 14.189 117.542 13.6487 116.689 13.2539C115.835 12.8591 114.885 12.6583 113.852 12.6583C112.735 12.6583 111.75 12.8938 110.897 13.3717C110.044 13.8496 109.323 14.473 108.747 15.2487V13.3094C108.747 13.1916 108.705 13.0877 108.615 12.9977C108.525 12.9076 108.421 12.8661 108.303 12.8661H106.396C106.278 12.8661 106.174 12.9145 106.084 12.9977C105.993 13.0808 105.952 13.1916 105.952 13.3094V31.4633L108.754 31.3386V25.3819C109.33 26.1577 110.044 26.7811 110.904 27.259C111.757 27.7369 112.742 27.9724 113.859 27.9724C114.892 27.9724 115.835 27.7715 116.695 27.3767C117.549 26.9819 118.284 26.4417 118.901 25.756C119.518 25.0703 119.997 24.2599 120.337 23.3248C120.677 22.3898 120.843 21.3855 120.843 20.3188C120.843 19.2521 120.677 18.2409 120.337 17.3058C119.997 16.3708 119.518 15.5604 118.901 14.8747H118.894ZM117.611 22.2166C117.389 22.8123 117.077 23.3318 116.668 23.782C116.259 24.2322 115.78 24.5785 115.218 24.8417C114.656 25.1049 114.046 25.2296 113.366 25.2296C112.687 25.2296 112.069 25.098 111.501 24.8278C110.932 24.5577 110.446 24.2045 110.037 23.7543C109.628 23.304 109.309 22.7846 109.08 22.1889C108.851 21.5932 108.733 20.9699 108.733 20.3119C108.733 19.6539 108.851 19.0305 109.08 18.4348C109.309 17.8392 109.628 17.3128 110.037 16.8556C110.446 16.3985 110.932 16.0383 111.501 15.7682C112.069 15.4981 112.687 15.3665 113.366 15.3665C114.046 15.3665 114.656 15.4981 115.218 15.7543C115.78 16.0106 116.259 16.3639 116.668 16.8141C117.077 17.2574 117.389 17.7838 117.611 18.3794C117.826 18.9751 117.937 19.6192 117.937 20.3188C117.937 21.0184 117.826 21.6279 117.611 22.2235V22.2166Z" fill="white"/>
<path d="M102.269 14.8747C101.652 14.189 100.916 13.6487 100.063 13.2539C99.2102 12.8591 98.26 12.6583 97.2266 12.6583C96.1099 12.6583 95.125 12.8938 94.2719 13.3717C93.4188 13.8496 92.6975 14.473 92.1218 15.2487V13.3094C92.1218 13.1916 92.0802 13.0877 91.99 12.9977C91.8999 12.9076 91.7958 12.8661 91.6779 12.8661H89.7706C89.6527 12.8661 89.5486 12.9145 89.4585 12.9977C89.3683 13.0808 89.3267 13.1916 89.3267 13.3094V32.4607C89.937 32.2736 90.5751 32.1559 91.234 32.1282L92.1288 32.0866V25.375C92.7044 26.1508 93.4188 26.7741 94.2789 27.2521C95.132 27.73 96.1169 27.9655 97.2335 27.9655C98.267 27.9655 99.2102 27.7646 100.07 27.3698C100.923 26.975 101.659 26.4347 102.276 25.749C102.893 25.0633 103.372 24.253 103.712 23.3179C104.051 22.3828 104.218 21.3785 104.218 20.3119C104.218 19.2452 104.051 18.234 103.712 17.2989C103.372 16.3639 102.893 15.5535 102.276 14.8678L102.269 14.8747ZM100.986 22.2166C100.764 22.8123 100.452 23.3318 100.043 23.782C99.6333 24.2322 99.1547 24.5785 98.5929 24.8417C98.0311 25.1049 97.4208 25.2296 96.7411 25.2296C96.0614 25.2296 95.4441 25.098 94.8753 24.8278C94.3066 24.5577 93.8211 24.2045 93.4119 23.7543C93.0027 23.304 92.6836 22.7846 92.4547 22.1889C92.2259 21.5932 92.1079 20.9699 92.1079 20.3119C92.1079 19.6539 92.2259 19.0305 92.4547 18.4348C92.6836 17.8392 93.0027 17.3128 93.4119 16.8556C93.8211 16.3985 94.3066 16.0383 94.8753 15.7682C95.4441 15.4981 96.0614 15.3665 96.7411 15.3665C97.4208 15.3665 98.0311 15.4981 98.5929 15.7543C99.1547 16.0106 99.6333 16.3639 100.043 16.8141C100.452 17.2574 100.764 17.7838 100.986 18.3794C101.201 18.9751 101.312 19.6192 101.312 20.3188C101.312 21.0184 101.201 21.6279 100.986 22.2235V22.2166Z" fill="white"/>
</g>
<defs>
<clipPath id="clip0_2140_1940">
<rect width="151" height="46.0947" fill="white" transform="translate(0 0.952637)"/>
</clipPath>
</defs>
</svg>
